<svg width="15" height="16" viewBox="0 0 15 16" fill="none" xmlns="http://www.w3.org/2000/svg">
<path d="M5.32239 10.3055L5.26086 10.3759C4.29768 11.4621 3.27163 12.5885 2.30383 13.6835C2.18118 13.8222 2.06285 13.9728 1.95813 14.1044C1.84911 14.2413 1.75143 14.3617 1.65344 14.4657C1.48614 14.6432 1.23836 14.8102 0.927856 14.9969C0.906224 15.01 0.883859 15.0227 0.86145 15.036L1.24036 14.1678L4.76965 10.0878L4.86731 9.97351C5.01866 10.0847 5.17076 10.1955 5.32239 10.3055ZM10.5128 10.1571L10.6876 10.2167L10.88 11.7889C10.9063 12.4593 10.6162 12.7715 10.2882 12.8905C10.0513 12.9764 9.74068 12.9805 9.41028 12.8739C9.54044 12.7885 9.68581 12.6453 9.73547 12.4999C9.73189 12.3751 9.67601 12.2097 9.64954 12.1669C9.64251 12.1572 9.63221 12.1457 9.62317 12.1346H9.62512C9.74774 12.0412 9.81525 11.9161 9.84485 11.7987C9.89517 11.5987 9.84021 11.4068 9.80286 11.2977C9.71819 11.0506 9.54256 10.7468 9.34192 10.4364C9.16888 10.1687 8.95581 9.86702 8.72278 9.54578L10.5128 10.1571ZM7.05188 8.97546C7.07125 9.00112 7.0902 9.02704 7.1095 9.05261C7.18398 9.31907 7.28093 9.61393 7.3927 9.9071C7.51136 10.2183 7.65286 10.5412 7.80383 10.8427C7.2819 10.4771 6.68441 10.0565 6.07922 9.61902C5.246 9.0167 4.4027 8.38644 3.71301 7.83582L7.05188 8.97546ZM9.8595 0.741089C10.5902 1.1953 11.3014 1.68569 12.0236 2.18445C12.7335 2.67477 13.4547 3.17294 14.1984 3.63855C14.4832 3.85898 14.5207 4.06606 14.4923 4.2196C14.4576 4.40671 14.2989 4.64743 13.9698 4.83484H13.9689C13.7485 4.96035 13.5495 5.00129 13.2013 5.08484L13.0148 5.12976L12.9054 5.28796L10.8527 8.27527L9.92883 4.40027C9.9296 3.6298 9.90745 2.48711 9.85071 0.852417L9.84583 0.733276C9.85025 0.736015 9.85501 0.738299 9.8595 0.741089ZM8.3429 7.72742C8.42446 7.76946 8.50193 7.8128 8.57727 7.85339L7.89368 7.68054C7.92991 7.63306 7.95064 7.58426 7.96594 7.53894C8.09597 7.60239 8.22205 7.66513 8.3429 7.72742ZM8.33215 2.91492C8.3306 3.01445 8.33097 3.12095 8.34094 3.20886C8.34515 3.24588 8.35523 3.32095 8.38586 3.39832C8.38835 3.40458 8.39262 3.41184 8.39661 3.42078C8.40265 3.46181 8.41116 3.5148 8.42004 3.57898C8.4434 3.74775 8.47478 3.98624 8.51086 4.24011C8.58127 4.73539 8.67483 5.3489 8.76282 5.67273C8.78215 5.74386 8.8153 5.85774 8.87122 5.95203C8.88755 5.97954 8.91505 6.02113 8.95618 6.06335C8.9949 6.10309 9.07356 6.1716 9.19446 6.20496C9.24141 6.21787 9.28868 6.22095 9.33508 6.22058L9.58704 7.27917C9.35007 7.13279 9.08368 6.98451 8.8009 6.83875C8.2418 6.55055 7.58597 6.25185 6.9093 5.95984C6.76601 5.80089 6.62227 5.64004 6.48938 5.49207C6.42201 5.41705 6.35813 5.34459 6.29797 5.27722H6.56458C6.64088 5.29512 6.70382 5.29681 6.73352 5.29675C6.81657 5.29657 6.89909 5.28471 6.96594 5.27234C7.06875 5.25331 7.17979 5.22313 7.28137 5.19421C7.34908 5.1883 7.41415 5.1835 7.47473 5.17371C7.55252 5.16113 7.63731 5.14274 7.7179 5.11414C7.79091 5.08819 7.90495 5.03875 8.00208 4.93933V4.93835C8.01879 4.92121 8.068 4.87 8.10461 4.78992C8.14315 4.70547 8.20746 4.48403 8.04797 4.27429C7.92427 4.11178 7.75389 4.08512 7.71985 4.07996C7.66278 4.0713 7.6156 4.07442 7.59485 4.07605C7.52151 4.08183 7.44525 4.10356 7.41418 4.11218C7.33519 4.13411 7.20466 4.17535 7.10266 4.20593C7.04947 4.20897 6.99014 4.21238 6.92493 4.21375C6.90413 4.21418 6.88295 4.21251 6.86145 4.21277L8.34192 2.65613C8.33734 2.74857 8.33339 2.83618 8.33215 2.91492ZM4.58801 6.07996C4.76366 6.15063 4.94211 6.22338 5.12219 6.29675C5.15695 6.35304 5.19178 6.41059 5.22864 6.46765C5.35813 6.66812 5.51051 6.88747 5.6759 7.12L3.38098 6.53992L4.52356 6.05359C4.54506 6.06223 4.56644 6.07128 4.58801 6.07996ZM1.70813 4.87097C1.73881 4.88982 1.76899 4.90728 1.79602 4.92175C2.01034 5.03645 2.40497 5.20279 2.87708 5.39441C2.98187 5.43694 3.09271 5.48089 3.20813 5.52722L1.77942 6.13562L1.27649 6.00867L1.29797 6.33972L1.07532 6.43445C0.7526 6.02465 0.749494 5.68772 0.838013 5.47937C0.933898 5.25391 1.20477 5.00136 1.70813 4.87097ZM8.65442 0.875854C8.66066 0.866808 8.66646 0.857427 8.67297 0.848511C8.74284 0.752934 8.81868 0.67691 8.89563 0.621948L8.65442 0.875854Z" fill="#7CC4FF" stroke="#7CC4FF"/>
</svg>
