<svg width="59" height="51" viewBox="0 0 59 51" fill="none" xmlns="http://www.w3.org/2000/svg">
<circle cx="19.5" cy="19.5" r="19.5" fill="#FFE8D6"/>
<path fill-rule="evenodd" clip-rule="evenodd" d="M19.2772 5.03442C15.4203 5.03442 12.2937 8.26193 12.2937 12.2433C12.2937 16.2246 15.4203 19.4521 19.2772 19.4521C23.1341 19.4521 26.2608 16.2246 26.2608 12.2433C26.2608 8.26193 23.1341 5.03442 19.2772 5.03442ZM19.5003 20.3704C16.4603 20.3704 13.5205 21.5062 11.1781 23.5748C8.8368 25.6424 7.23701 28.5133 6.63886 31.6959C6.5801 32.0086 6.65975 32.332 6.85605 32.5777C7.05235 32.8234 7.34474 32.9657 7.65328 32.9657H31.3473C31.6558 32.9657 31.9482 32.8234 32.1445 32.5777C32.3408 32.332 32.4205 32.0086 32.3617 31.6959C31.7635 28.5133 30.1638 25.6424 27.8224 23.5748C25.48 21.5062 22.5402 20.3704 19.5003 20.3704Z" fill="#FF8933"/>
<circle cx="39.5" cy="31.5" r="19.5" fill="#FFE8D6"/>
<path fill-rule="evenodd" clip-rule="evenodd" d="M39.2772 17.0344C35.4203 17.0344 32.2937 20.2619 32.2937 24.2433C32.2937 28.2246 35.4203 31.4521 39.2772 31.4521C43.1341 31.4521 46.2608 28.2246 46.2608 24.2433C46.2608 20.2619 43.1341 17.0344 39.2772 17.0344ZM39.5003 32.3704C36.4603 32.3704 33.5205 33.5062 31.1781 35.5748C28.8368 37.6424 27.237 40.5133 26.6389 43.6959C26.5801 44.0086 26.6598 44.332 26.8561 44.5777C27.0523 44.8234 27.3447 44.9657 27.6533 44.9657H51.3473C51.6558 44.9657 51.9482 44.8234 52.1445 44.5777C52.3408 44.332 52.4205 44.0086 52.3617 43.6959C51.7635 40.5133 50.1638 37.6424 47.8224 35.5748C45.48 33.5062 42.5402 32.3704 39.5003 32.3704Z" fill="#FF8933"/>
</svg>
