<svg width="127" height="150" viewBox="0 0 127 150" fill="none" xmlns="http://www.w3.org/2000/svg">
<path d="M123.382 26.7139C113.123 23.9716 103.1 20.4135 93.4081 16.0736C83.8745 11.938 74.6714 7.07911 65.8792 1.53944L63.3889 0L60.9439 1.58472C52.1517 7.12439 42.9485 11.9833 33.415 16.1189C23.7073 20.4457 13.6688 23.9886 3.39583 26.7139L0 27.5742V65.3358C0 125.963 61.2608 148.647 61.8494 148.873L63.3889 149.417L64.9283 148.873C65.5622 148.873 126.778 126.008 126.778 65.3358V27.5742L123.382 26.7139Z" fill="#F0F0F0"/>
<path d="M83.1385 55.208H79.8468V48.708C79.8468 39.738 72.4735 32.458 63.3885 32.458C54.3035 32.458 46.9302 39.738 46.9302 48.708V55.208H43.6385C40.0177 55.208 37.0552 58.133 37.0552 61.708V94.208C37.0552 97.783 40.0177 100.708 43.6385 100.708H83.1385C86.7593 100.708 89.7218 97.783 89.7218 94.208V61.708C89.7218 58.133 86.7593 55.208 83.1385 55.208ZM63.3885 84.458C59.7677 84.458 56.8052 81.533 56.8052 77.958C56.8052 74.383 59.7677 71.458 63.3885 71.458C67.0093 71.458 69.9718 74.383 69.9718 77.958C69.9718 81.533 67.0093 84.458 63.3885 84.458ZM73.5927 55.208H53.1843V48.708C53.1843 43.1505 57.7598 38.633 63.3885 38.633C69.0173 38.633 73.5927 43.1505 73.5927 48.708V55.208Z" fill="#FF8933"/>
<circle cx="106.389" cy="121.708" r="14" fill="#FF8933" stroke="white" stroke-width="3"/>
<path d="M101.889 120.708L105.539 124.208L111.889 118.208" stroke="white" stroke-width="3" stroke-linecap="round" stroke-linejoin="round"/>
</svg>
